<?xml version="1.0" encoding="iso-8859-1"?>
<!-- Generator: Adobe Illustrator 19.0.0, SVG Export Plug-In . SVG Version: 6.00 Build 0)  -->
<svg version="1.1" id="Layer_1" xmlns="http://www.w3.org/2000/svg" xmlns:xlink="http://www.w3.org/1999/xlink" x="0px" y="0px"
	 viewBox="0 0 512.001 512.001" style="enable-background:new 0 0 512.001 512.001;" xml:space="preserve">
<path style="fill:#2C6991;" d="M489.813,11.128c-12.488-9.109-27.775-12.809-43.048-10.42
	c-15.271,2.389-28.698,10.584-37.806,23.071L210.618,295.705c-5.766,7.904-4.032,18.985,3.872,24.751
	c2.579,1.881,5.494,2.963,8.453,3.294c6.114,0.684,12.413-1.841,16.297-7.166L437.583,44.657c3.532-4.842,8.738-8.02,14.659-8.946
	c5.923-0.926,11.849,0.509,16.692,4.04c7.902,5.764,18.985,4.032,24.751-3.872C499.451,27.974,497.716,16.893,489.813,11.128z"/>
<path style="fill:#528FB3;" d="M446.765,0.708c-15.271,2.389-28.698,10.584-37.806,23.071L210.618,295.705
	c-5.766,7.904-4.032,18.985,3.872,24.751L446.765,0.708z"/>
<g>
	<path style="fill:#FB5858;" d="M414.565,205.235c-9.783,0-17.715,7.931-17.715,17.715c0,9.783,7.931,17.715,17.715,17.715l0,0
		c10.576,0,19.18,8.605,19.18,19.181s-8.605,19.18-19.18,19.18l0,0c-9.783,0-17.715,7.931-17.715,17.715
		c0,9.783,7.931,17.715,17.715,17.715c30.112,0,54.61-24.498,54.61-54.609S444.678,205.235,414.565,205.235z"/>
	<path style="fill:#FB5858;" d="M57.769,259.844c0-10.577,8.605-19.181,19.181-19.181l0,0c9.783,0,17.715-7.931,17.715-17.715
		c0-9.783-7.931-17.715-17.715-17.715c-30.112,0-54.61,24.498-54.61,54.61s24.498,54.609,54.61,54.609
		c9.783,0,17.715-7.931,17.715-17.715c0-9.783-7.931-17.715-17.715-17.715l0,0C66.375,279.024,57.769,270.421,57.769,259.844z"/>
</g>
<path style="fill:#FF835D;" d="M426.068,455.141l-10.024-278.168c-0.575-15.96-13.535-28.711-29.505-28.711H104.977
	c-15.97,0-28.93,12.752-29.505,28.711L65.448,455.016c-0.539,14.932,4.877,29.315,15.251,40.07
	c10.374,10.754,24.316,16.915,39.258,16.915H371.56c14.942,0,28.884-6.099,39.257-16.852
	C421.19,484.393,426.606,470.072,426.068,455.141z"/>
<path style="fill:#FBB071;" d="M246.258,148.261H104.977c-15.97,0-28.93,12.752-29.505,28.711L65.448,455.016
	c-0.539,14.932,4.877,29.315,15.251,40.07c10.374,10.754,24.316,16.915,39.258,16.915h126.301V148.261z"/>
<path style="fill:#CCCCCC;" d="M340.918,88.728L39.004,205.133c-9.129,3.519-19.382-1.027-22.901-10.156
	c-3.519-9.129,1.027-19.382,10.156-22.901L328.171,55.671c9.129-3.519,19.382,1.027,22.901,10.156
	C354.592,74.956,350.045,85.209,340.918,88.728z"/>
<path style="fill:#E1E1E1;" d="M189.96,146.93L39.004,205.133c-9.129,3.519-19.382-1.027-22.901-10.156
	c-3.519-9.129,1.027-19.382,10.156-22.901l150.957-58.202L189.96,146.93z"/>
<path style="fill:#FF835D;" d="M240.014,89.661l-125.599,48.424c-9.129,3.519-19.382-1.027-22.901-10.156
	c-3.519-9.129,1.027-19.382,10.156-22.901l125.597-48.424c9.129-3.519,19.382,1.027,22.901,10.156S249.142,86.141,240.014,89.661z"
	/>
<path style="fill:#FBB071;" d="M177.215,113.874l-62.799,24.212c-9.129,3.519-19.382-1.027-22.901-10.156
	c-3.519-9.129,1.027-19.382,10.156-22.901l62.799-24.212L177.215,113.874z"/>
<g>
</g>
<g>
</g>
<g>
</g>
<g>
</g>
<g>
</g>
<g>
</g>
<g>
</g>
<g>
</g>
<g>
</g>
<g>
</g>
<g>
</g>
<g>
</g>
<g>
</g>
<g>
</g>
<g>
</g>
</svg>
